# xmcd CD database file
#
# Track frame offsets:
#	150
#	49066
#	144920
#	149784
#	165896
#	177429
#	222055
#	234238
#	245320
#
# Disc length: 3580 seconds
#
# Revision: 0
# Processed by: cddbd v1.5.2PL0 Copyright (c) Steve Scherf et al.
# Submitted via: CDex 1.70beta2
#
DISCID=760dfa09
DTITLE=Zappa Plays Zappa - Stockholm (05/19/2006) Disk One of Three
DYEAR=2006
DGENRE=Jazz
TTITLE0=Montana (Frank Zappa Pre-Show) 
TTITLE1=Dupree's Paradised Film
TTITLE2=Help I am Rock
TTITLE3=Hungry Freaks Daddy
TTITLE4=Let's Make The Water Turn Black
TTITLE5=Florentine Pogen
TTITLE6=Pygmy Twylite
TTITLE7=The Idiot Bastard Son
TTITLE8=Cheepnis
EXTD=YEAR: 2006
EXTT0=
EXTT1=
EXTT2=
EXTT3=
EXTT4=
EXTT5=
EXTT6=
EXTT7=
EXTT8=
PLAYORDER=
